<svg xmlns="http://www.w3.org/2000/svg" xmlns:xlink="http://www.w3.org/1999/xlink" version="1.1" width="256" height="256" viewBox="0 0 256 256" xml:space="preserve">
<desc>Created with Fabric.js 1.7.22</desc>
<defs>
</defs>
<g transform="translate(128 128) scale(0.72 0.72)" style="">
	<g style="stroke: none; stroke-width: 0; stroke-dasharray: none; stroke-linecap: butt; stroke-linejoin: miter; stroke-miterlimit: 10; fill: none; fill-rule: nonzero; opacity: 1;" transform="translate(-175.05 -175.05000000000004) scale(3.89 3.89)" >
	<path d="M 89.138 30.518 c -0.824 -1.103 -2.087 -1.736 -3.464 -1.736 H 71.782 c -0.553 0 -1 0.448 -1 1 c 0 0.552 0.447 1 1 1 h 13.891 c 0.74 0 1.419 0.34 1.861 0.933 c 0.442 0.593 0.576 1.339 0.366 2.048 l -5.809 19.65 c -0.518 1.749 -2.152 2.971 -3.977 2.971 H 24.297 l -6.648 -25.602 h 14.087 c 0.552 0 1 -0.448 1 -1 c 0 -0.552 -0.448 -1 -1 -1 H 17.129 l -0.886 -3.413 c -0.704 -2.712 -3.154 -4.607 -5.956 -4.607 H 1 c -0.552 0 -1 0.448 -1 1 c 0 0.552 0.448 1 1 1 h 9.287 c 1.892 0 3.545 1.279 4.021 3.11 l 11.165 42.995 c 0.114 0.441 0.512 0.749 0.968 0.749 h 52.201 c 0.553 0 1 -0.447 1 -1 s -0.447 -1 -1 -1 H 27.214 l -2.397 -9.232 h 53.3 c 2.704 0 5.128 -1.811 5.894 -4.404 l 5.809 -19.649 C 90.21 33.01 89.961 31.621 89.138 30.518 z" style="stroke: none; stroke-width: 1; stroke-dasharray: none; stroke-linecap: butt; stroke-linejoin: miter; stroke-miterlimit: 10; fill: rgb(0,0,0); fill-rule: nonzero; opacity: 1;" transform=" matrix(1 0 0 1 0 0) " stroke-linecap="round" />
	<path d="M 35.47 87.423 c -3.762 0 -6.822 -3.061 -6.822 -6.822 s 3.061 -6.822 6.822 -6.822 c 3.762 0 6.823 3.061 6.823 6.822 S 39.232 87.423 35.47 87.423 z M 35.47 75.779 c -2.659 0 -4.822 2.163 -4.822 4.822 c 0 2.659 2.163 4.822 4.822 4.822 s 4.823 -2.163 4.823 -4.822 C 40.293 77.942 38.129 75.779 35.47 75.779 z" style="stroke: none; stroke-width: 1; stroke-dasharray: none; stroke-linecap: butt; stroke-linejoin: miter; stroke-miterlimit: 10; fill: rgb(0,0,0); fill-rule: nonzero; opacity: 1;" transform=" matrix(1 0 0 1 0 0) " stroke-linecap="round" />
	<path d="M 68.27 87.423 c -3.762 0 -6.822 -3.061 -6.822 -6.822 s 3.061 -6.822 6.822 -6.822 c 3.763 0 6.823 3.061 6.823 6.822 S 72.032 87.423 68.27 87.423 z M 68.27 75.779 c -2.659 0 -4.822 2.163 -4.822 4.822 c 0 2.659 2.163 4.822 4.822 4.822 c 2.659 0 4.823 -2.163 4.823 -4.822 C 73.093 77.942 70.929 75.779 68.27 75.779 z" style="stroke: none; stroke-width: 1; stroke-dasharray: none; stroke-linecap: butt; stroke-linejoin: miter; stroke-miterlimit: 10; fill: rgb(0,0,0); fill-rule: nonzero; opacity: 1;" transform=" matrix(1 0 0 1 0 0) " stroke-linecap="round" />
	<path d="M 51.999 42.37 c -0.256 0 -0.512 -0.098 -0.707 -0.293 L 33.306 24.091 c -0.187 -0.187 -0.293 -0.442 -0.293 -0.707 c 0 -0.265 0.105 -0.52 0.293 -0.707 l 6.564 -6.564 c 0.391 -0.391 1.023 -0.391 1.414 0 l 5.073 5.073 V 3.577 c 0 -0.552 0.447 -1 1 -1 h 9.283 c 0.553 0 1 0.448 1 1 v 17.609 l 5.073 -5.073 c 0.391 -0.391 1.023 -0.391 1.414 0 l 6.564 6.564 c 0.188 0.187 0.293 0.442 0.293 0.707 c 0 0.265 -0.105 0.52 -0.293 0.707 L 52.706 42.077 C 52.511 42.272 52.255 42.37 51.999 42.37 z M 35.427 23.384 l 16.572 16.572 l 16.572 -16.572 l -5.15 -5.15 l -6.073 6.073 c -0.287 0.286 -0.716 0.372 -1.09 0.217 c -0.374 -0.155 -0.617 -0.52 -0.617 -0.924 V 4.577 h -7.283 v 19.023 c 0 0.404 -0.243 0.769 -0.617 0.924 c -0.373 0.155 -0.803 0.07 -1.09 -0.217 l -6.073 -6.073 L 35.427 23.384 z" style="stroke: none; stroke-width: 1; stroke-dasharray: none; stroke-linecap: butt; stroke-linejoin: miter; stroke-miterlimit: 10; fill: rgb(0,0,0); fill-rule: nonzero; opacity: 1;" transform=" matrix(1 0 0 1 0 0) " stroke-linecap="round" />
</g>
</g>
</svg>